<svg xmlns="http://www.w3.org/2000/svg" xmlns:xlink="http://www.w3.org/1999/xlink" xml:space="preserve" id="ai-centre_svg__Layer_1" x="0" y="0" style="enable-background:new 0 0 148 96.2" viewBox="0 0 148 96.2"><style>.ai-centre_svg__st0{fill:#13110c}.ai-centre_svg__st1{fill:#787473}</style><path d="M70.5 61.58h-2l-1.26-3.87h-4.3l-1.24 3.87h-1.96L64 48.86h2.23l4.27 12.72zm-3.84-5.59-1.58-4.74-1.55 4.74h3.13zM72.05 48.86h1.98v12.72h-1.98zM91.38 60.29c-1.41.97-2.79 1.46-4.12 1.46-1.57 0-2.87-.57-3.9-1.73-1.08-1.21-1.61-2.8-1.61-4.77 0-2.01.54-3.62 1.63-4.84 1.04-1.16 2.36-1.74 3.97-1.74 1.24 0 2.57.42 3.97 1.27l-.47 1.76c-1.23-.85-2.35-1.27-3.33-1.27-1.06 0-1.92.38-2.58 1.16-.73.86-1.1 2.09-1.1 3.7 0 1.48.41 2.63 1.23 3.45.73.72 1.65 1.08 2.74 1.08 1.03 0 2.07-.45 3.11-1.35l.46 1.82zM100.97 61.58h-7.4V48.86h7.4v1.84h-5.42v3.01h3.99v1.84h-3.99v4.17h5.42zM112.11 61.58h-1.83l-5.23-8.91v8.91h-1.98V48.86h1.83l5.22 8.89v-8.89h1.99zM121.96 50.7h-3.2v10.88h-1.98V50.7h-3.2v-1.84h8.38zM133.01 61.58h-2.08l-3.41-4.97c-.23.02-.47.04-.71.04h-1.32v4.93h-1.98V48.86h3.3c1.49 0 2.67.41 3.55 1.21.77.72 1.15 1.6 1.15 2.63 0 .72-.19 1.39-.57 1.99-.38.61-.92 1.08-1.63 1.42l3.7 5.47zm-3.48-8.84c0-1.46-1.1-2.2-3.31-2.2h-.68v4.42h.68c2.21 0 3.31-.74 3.31-2.22M141.96 61.58h-7.4V48.86h7.4v1.84h-5.42v3.01h3.99v1.84h-3.99v4.17h5.42z" class="ai-centre_svg__st0"></path><path d="m63.91 63.92-.08.81c-.33-.12-.63-.18-.92-.18-.76 0-1.14.39-1.14 1.18v.87h1.55v.73h-1.54v6.28h-.97v-6.28h-1.03v-.73h1.03v-.68c0-1.39.71-2.09 2.14-2.09.27-.01.6.03.96.09M70.27 70.03c0 1.17-.32 2.1-.95 2.78-.58.62-1.28.92-2.11.92-.84 0-1.55-.31-2.12-.92-.65-.69-.97-1.62-.97-2.78 0-1.17.32-2.11.97-2.81.58-.64 1.3-.95 2.14-.95.83 0 1.53.31 2.1.94.63.69.94 1.63.94 2.82M69.3 70c0-.83-.2-1.54-.61-2.13-.41-.59-.9-.88-1.49-.88-.58 0-1.07.29-1.48.88-.41.59-.62 1.3-.62 2.13 0 .83.2 1.54.62 2.13.41.59.91.88 1.48.88s1.07-.3 1.48-.88c.41-.59.62-1.3.62-2.13M75.48 66.38l-.23.98c-.28-.21-.61-.31-.97-.31-.52 0-1.07.3-1.66.91v5.64h-.97v-5.98l-.27-1.21h.59l.66.77c.89-.6 1.57-.91 2.02-.91.36 0 .64.04.83.11M87.19 64.02l-3.21 9.57H82.6l-3.21-9.57h1.08l2.85 8.75 2.82-8.75zM93.31 73.6h-.59l-.62-.72c-.54.33-.91.54-1.12.62-.38.16-.81.24-1.28.24-.64 0-1.15-.2-1.54-.61-.41-.43-.62-1.02-.62-1.78 0-.62.23-1.11.7-1.48s1.11-.56 1.93-.56c.61 0 1.24.1 1.88.3v-.55c0-1.34-.52-2.02-1.55-2.02-.35 0-1.01.13-2 .4l-.3-.74c1.12-.28 2.01-.43 2.66-.43.87 0 1.46.25 1.78.74.26.4.38 1.07.38 2.03v3.25l.29 1.31zm-1.25-1.51v-1.87c-.53-.17-1.04-.25-1.54-.25-.59 0-1.08.12-1.44.37-.39.26-.59.62-.59 1.08 0 .46.19.82.56 1.1.34.24.75.37 1.25.37.35 0 .69-.07 1.02-.23.34-.17.58-.35.74-.57M94.87 63.75h.97v9.84h-.97zM103.42 73.59h-.6l-.64-.76c-.82.38-1.31.59-1.44.64-.46.18-.86.27-1.18.27-.61 0-1.09-.23-1.44-.7-.37-.5-.56-1.23-.56-2.19v-4.44h.97v4.44c0 1.44.45 2.16 1.34 2.16.36 0 .78-.11 1.26-.33.39-.19.74-.4 1.05-.62v-5.65h.97v5.88l.27 1.3zM110.38 70.06h-4.87c.03.92.3 1.65.81 2.19.47.48 1.03.72 1.7.72.86 0 1.56-.29 2.11-.85l.16.79c-.83.54-1.69.81-2.57.81-.91 0-1.66-.33-2.25-.99-.63-.71-.95-1.66-.95-2.84 0-1.15.32-2.05.97-2.73.59-.6 1.29-.9 2.12-.9.76 0 1.4.25 1.91.77.57.57.85 1.33.85 2.27v.76zm-.96-.75c-.07-1.54-.69-2.31-1.85-2.31-.55 0-1.01.21-1.39.65-.37.43-.58.99-.63 1.67h3.87zM121.41 70.74c0 .79-.29 1.45-.88 1.97-.64.59-1.5.88-2.6.88h-2.34v-9.57h2.08c.94 0 1.68.25 2.22.75.47.43.7.96.7 1.58 0 .8-.34 1.42-1.02 1.87.6.23 1.07.58 1.4 1.06.29.46.44.94.44 1.46m-1.75-4.35c0-1.07-.79-1.6-2.39-1.6h-.66v3.14h.66c.92 0 1.57-.15 1.95-.46.29-.24.44-.6.44-1.08m.72 4.38c0-1.35-.87-2.03-2.6-2.03h-1.12v4.08h.81c1.94-.01 2.91-.69 2.91-2.05M128.14 73.6h-.59l-.62-.72c-.54.33-.91.54-1.12.62-.38.16-.81.24-1.27.24-.64 0-1.15-.2-1.54-.61-.41-.43-.62-1.02-.62-1.78 0-.62.24-1.11.71-1.48.47-.37 1.11-.56 1.93-.56.61 0 1.24.1 1.88.3v-.55c0-1.34-.52-2.02-1.55-2.02-.35 0-1.01.13-2 .4l-.3-.74c1.12-.28 2.01-.43 2.66-.43.87 0 1.46.25 1.78.74.26.4.38 1.07.38 2.03v3.25l.27 1.31zm-1.25-1.51v-1.87c-.53-.17-1.04-.25-1.53-.25-.6 0-1.08.12-1.44.37-.4.26-.59.62-.59 1.08 0 .46.19.82.56 1.1.34.24.75.37 1.25.37.35 0 .69-.07 1.02-.23.33-.17.58-.35.73-.57M134.3 71.83c0 .64-.27 1.13-.82 1.48-.48.31-1.1.47-1.86.47-.52 0-1.27-.23-2.25-.7l.17-.85c.76.49 1.5.74 2.24.74.45 0 .83-.1 1.12-.3.29-.2.43-.45.43-.77 0-.41-.33-.8-.99-1.19-.6-.34-1.21-.69-1.82-1.04-.66-.46-.99-.97-.99-1.53 0-.65.26-1.14.77-1.46.41-.26.92-.4 1.52-.4.4 0 .82.1 1.26.3.27.16.55.32.84.47l-.18.78c-.54-.5-1.16-.75-1.86-.75-.41 0-.75.09-1.01.28-.26.19-.39.43-.39.72 0 .41.33.78 1 1.11.61.31 1.22.63 1.84.95.65.44.98 1 .98 1.69M141.12 70.06h-4.87c.03.92.3 1.65.81 2.19.47.48 1.03.72 1.7.72.86 0 1.56-.29 2.11-.85l.17.79c-.83.54-1.69.81-2.58.81-.91 0-1.65-.33-2.25-.99-.63-.71-.95-1.66-.95-2.84 0-1.15.33-2.05.98-2.73.58-.6 1.29-.9 2.12-.9.76 0 1.39.25 1.91.77.57.57.85 1.33.85 2.27v.76zm-.97-.75c-.07-1.54-.69-2.31-1.85-2.31-.55 0-1.01.21-1.38.65-.38.43-.59.99-.63 1.67h3.86zM148 73.59l-.04.02h-.6l-.62-.77c-.5.34-.85.56-1.05.65-.36.16-.74.24-1.14.24-.75 0-1.35-.34-1.79-1.01-.45-.67-.67-1.57-.67-2.7 0-1.11.28-2.02.82-2.73.52-.69 1.17-1.04 1.94-1.04.27 0 .57.09.89.28.34.23.68.45 1.02.68v-3.49h.97v8.55l.27 1.32zm-1.29-1.53V68c-.62-.64-1.17-.96-1.64-.96-.55 0-1 .26-1.38.78-.41.55-.62 1.28-.62 2.19 0 .94.19 1.68.59 2.22.36.49.82.74 1.37.74.55-.01 1.11-.31 1.68-.91M67.39 85.61h-1.03v-4.8h-4.59v4.8h-1.03v-9.57h1.03v3.88h4.59v-3.88h1.03zM74.82 82.08h-4.87c.03.92.3 1.65.81 2.19.47.48 1.03.72 1.7.72.86 0 1.56-.29 2.11-.85l.17.79c-.83.54-1.69.81-2.58.81-.91 0-1.66-.33-2.25-.99-.63-.71-.95-1.66-.95-2.84 0-1.15.32-2.05.97-2.73.58-.6 1.29-.9 2.12-.9.76 0 1.39.25 1.91.77.57.57.85 1.33.85 2.27v.76zm-.96-.75c-.07-1.54-.69-2.32-1.85-2.32-.55 0-1.01.21-1.39.65-.37.43-.58.99-.63 1.67h3.87zM81.42 85.61h-.59l-.62-.72c-.54.33-.91.54-1.12.62-.38.16-.81.24-1.28.24-.64 0-1.15-.2-1.54-.61-.41-.43-.62-1.02-.62-1.78 0-.62.23-1.11.7-1.48.47-.37 1.11-.56 1.93-.56.61 0 1.24.1 1.88.3v-.55c0-1.34-.52-2.02-1.55-2.02-.35 0-1.01.13-2 .4l-.3-.74c1.12-.28 2.01-.43 2.66-.43.87 0 1.46.25 1.78.74.26.4.38 1.07.38 2.03v3.25l.29 1.31zm-1.25-1.5v-1.88c-.53-.17-1.04-.25-1.54-.25-.59 0-1.08.12-1.44.37-.39.26-.59.62-.59 1.08 0 .46.19.82.56 1.1.34.24.75.37 1.25.37.35 0 .69-.07 1.02-.23.34-.16.59-.34.74-.56M82.98 75.77h.97v9.84h-.97zM89.15 85.54c-.37.07-.69.1-.96.1-1.44 0-2.15-.69-2.15-2.09v-4.22H85v-.73h1.04v-1.73l.97-.28v2.02h2v.73h-2v4.4c0 .71.45 1.06 1.34 1.06.2 0 .44-.02.71-.07l.09.81zM95.86 85.61h-.99v-4.4c0-1.47-.45-2.2-1.34-2.2-.3 0-.7.12-1.2.37-.43.21-.79.43-1.09.67v5.56h-.99v-9.86h.99v3.52c.49-.23.97-.45 1.44-.67.48-.22.87-.33 1.19-.33.61 0 1.09.24 1.44.73.37.51.55 1.24.55 2.2v4.41zM102.6 85c-.75.5-1.52.75-2.32.75-.91 0-1.67-.33-2.28-.98-.63-.68-.95-1.59-.95-2.73 0-1.15.32-2.07.95-2.77.59-.66 1.35-.99 2.26-.99.79 0 1.57.27 2.33.8l-.16.84c-.5-.53-1.12-.8-1.89-.8-.69 0-1.26.24-1.73.71-.52.54-.78 1.29-.78 2.24 0 .92.26 1.64.8 2.17.48.47 1.06.7 1.76.7.75 0 1.37-.26 1.85-.78l.16.84zM109.2 85.61h-.59l-.62-.72c-.54.33-.91.54-1.12.62-.38.16-.81.24-1.28.24-.64 0-1.15-.2-1.53-.61-.41-.43-.62-1.02-.62-1.78 0-.62.23-1.11.7-1.48.47-.37 1.12-.56 1.93-.56.61 0 1.24.1 1.88.3v-.55c0-1.34-.52-2.02-1.55-2.02-.35 0-1.01.13-2 .4l-.3-.74c1.12-.28 2.01-.43 2.66-.43.87 0 1.46.25 1.78.74.26.4.38 1.07.38 2.03v3.25l.28 1.31zm-1.25-1.5v-1.88c-.53-.17-1.04-.25-1.54-.25-.59 0-1.07.12-1.44.37-.39.26-.59.62-.59 1.08 0 .46.19.82.56 1.1.34.24.76.37 1.25.37.35 0 .69-.07 1.02-.23.34-.16.58-.34.74-.56M114.53 78.4l-.24.98c-.28-.21-.61-.31-.97-.31-.52 0-1.07.3-1.66.91v5.64h-.98v-5.98l-.27-1.21h.59l.66.76c.89-.6 1.57-.91 2.01-.91.39 0 .67.05.86.12M120.8 82.08h-4.87c.03.92.3 1.65.81 2.19.47.48 1.03.72 1.7.72.86 0 1.56-.29 2.11-.85l.17.79c-.84.54-1.69.81-2.58.81-.91 0-1.65-.33-2.25-.99-.63-.71-.95-1.66-.95-2.84 0-1.15.33-2.05.98-2.73.58-.6 1.29-.9 2.12-.9.76 0 1.39.25 1.91.77.57.57.85 1.33.85 2.27v.76zm-.96-.75c-.07-1.54-.69-2.32-1.85-2.32-.55 0-1.01.21-1.39.65-.38.43-.59.99-.63 1.67h3.87z" class="ai-centre_svg__st1"></path><defs><path id="ai-centre_svg__SVGID_1_" d="M7.78 62.94a3.706 3.706 0 0 0-1.36 5.07 3.725 3.725 0 0 0 3.22 1.86c.63 0 1.27-.16 1.85-.5 1.78-1.02 2.38-3.3 1.36-5.07a3.725 3.725 0 0 0-3.22-1.86c-.63 0-1.27.16-1.85.5"></path></defs><clipPath id="ai-centre_svg__SVGID_00000106834838574504756530000015178315415808457608_"><use xlink:href="#ai-centre_svg__SVGID_1_" style="overflow:visible"></use></clipPath><linearGradient id="ai-centre_svg__SVGID_00000000198649013139230720000016291217816189034664_" x1="-520.17" x2="-519.817" y1="468.996" y2="468.996" gradientTransform="scale(431.9755 -431.9755) rotate(29.646 626.325 1217.15)" gradientUnits="userSpaceOnUse"><stop offset="0" style="stop-color:#daeef5"></stop><stop offset="0.055" style="stop-color:#daeef5"></stop><stop offset="0.436" style="stop-color:#bda5cf"></stop><stop offset="0.544" style="stop-color:#c7a8ce"></stop><stop offset="0.729" style="stop-color:#e3b1cb"></stop><stop offset="0.835" style="stop-color:#f6b7c9"></stop><stop offset="1" style="stop-color:#f6b7c9"></stop></linearGradient><path d="m2.2 64.26 9.6-5.47 5.27 9.26-9.6 5.46z" style="clip-path:url(#ai-centre_svg__SVGID_00000106834838574504756530000015178315415808457608_);fill:url(#ai-centre_svg__SVGID_00000000198649013139230720000016291217816189034664_)"></path><defs><path id="ai-centre_svg__SVGID_00000129164668692066306190000003936270363220833669_" d="M26.16 43.65c-.04 1.21.9 2.22 2.11 2.26h.08c1.17 0 2.14-.93 2.18-2.11.05-1.2-.9-2.22-2.1-2.26h-.08c-1.18 0-2.15.93-2.19 2.11"></path></defs><clipPath id="ai-centre_svg__SVGID_00000080177316174234350440000010908944770878462096_"><use xlink:href="#ai-centre_svg__SVGID_00000129164668692066306190000003936270363220833669_" style="overflow:visible"></use></clipPath><linearGradient id="ai-centre_svg__SVGID_00000169533635844125256990000017030618718659976869_" x1="-520.17" x2="-519.817" y1="468.953" y2="468.953" gradientTransform="scale(431.9529 -431.9529) rotate(29.646 626.198 1217.116)" gradientUnits="userSpaceOnUse"><stop offset="0" style="stop-color:#daeef5"></stop><stop offset="0.055" style="stop-color:#daeef5"></stop><stop offset="0.436" style="stop-color:#bda5cf"></stop><stop offset="0.544" style="stop-color:#c7a8ce"></stop><stop offset="0.729" style="stop-color:#e3b1cb"></stop><stop offset="0.835" style="stop-color:#f6b7c9"></stop><stop offset="1" style="stop-color:#f6b7c9"></stop></linearGradient><path d="m24.24 42.61 5.24-2.98 2.97 5.21-5.24 2.99z" style="clip-path:url(#ai-centre_svg__SVGID_00000080177316174234350440000010908944770878462096_);fill:url(#ai-centre_svg__SVGID_00000169533635844125256990000017030618718659976869_)"></path><defs><path id="ai-centre_svg__SVGID_00000137128784034841808600000006270600619060772017_" d="M8.22 42.52c-.04 1.02.76 1.88 1.78 1.92h.07a1.851 1.851 0 0 0 .07-3.7h-.07c-.99 0-1.81.79-1.85 1.78"></path></defs><clipPath id="ai-centre_svg__SVGID_00000090252874562556195620000009058167172582461374_"><use xlink:href="#ai-centre_svg__SVGID_00000137128784034841808600000006270600619060772017_" style="overflow:visible"></use></clipPath><linearGradient id="ai-centre_svg__SVGID_00000111163041773439088930000006475054742212053388_" x1="-520.17" x2="-519.817" y1="468.911" y2="468.911" gradientTransform="scale(431.978 -431.978) rotate(29.646 626.074 1217.084)" gradientUnits="userSpaceOnUse"><stop offset="0" style="stop-color:#daeef5"></stop><stop offset="0.055" style="stop-color:#daeef5"></stop><stop offset="0.436" style="stop-color:#bda5cf"></stop><stop offset="0.544" style="stop-color:#c7a8ce"></stop><stop offset="0.729" style="stop-color:#e3b1cb"></stop><stop offset="0.835" style="stop-color:#f6b7c9"></stop><stop offset="1" style="stop-color:#f6b7c9"></stop></linearGradient><path d="m6.59 41.64 4.44-2.52 2.52 4.41-4.44 2.53z" style="clip-path:url(#ai-centre_svg__SVGID_00000090252874562556195620000009058167172582461374_);fill:url(#ai-centre_svg__SVGID_00000111163041773439088930000006475054742212053388_)"></path><defs><path id="ai-centre_svg__SVGID_00000178925791969224322660000003756971925072064432_" d="M42.48 84.96c-.04 1.02.76 1.88 1.78 1.92h.07c.99 0 1.81-.78 1.85-1.79.04-1.02-.76-1.88-1.78-1.92h-.07c-.99.01-1.81.8-1.85 1.79"></path></defs><clipPath id="ai-centre_svg__SVGID_00000014612121192817381750000008050385911009970590_"><use xlink:href="#ai-centre_svg__SVGID_00000178925791969224322660000003756971925072064432_" style="overflow:visible"></use></clipPath><linearGradient id="ai-centre_svg__SVGID_00000018200560146826830590000009231359676815783865_" x1="-520.17" x2="-519.817" y1="469.139" y2="469.139" gradientTransform="scale(431.9892 -431.9892) rotate(29.646 626.739 1217.258)" gradientUnits="userSpaceOnUse"><stop offset="0" style="stop-color:#daeef5"></stop><stop offset="0.055" style="stop-color:#daeef5"></stop><stop offset="0.436" style="stop-color:#bda5cf"></stop><stop offset="0.544" style="stop-color:#c7a8ce"></stop><stop offset="0.729" style="stop-color:#e3b1cb"></stop><stop offset="0.835" style="stop-color:#f6b7c9"></stop><stop offset="1" style="stop-color:#f6b7c9"></stop></linearGradient><path d="m40.86 84.09 4.44-2.53 2.51 4.42-4.44 2.52z" style="clip-path:url(#ai-centre_svg__SVGID_00000014612121192817381750000008050385911009970590_);fill:url(#ai-centre_svg__SVGID_00000018200560146826830590000009231359676815783865_)"></path><defs><path id="ai-centre_svg__SVGID_00000065788665734438277400000005910294556854485145_" d="M95.79 27.51c-.05 1.21.9 2.22 2.1 2.26h.08c1.17 0 2.14-.93 2.18-2.11.04-1.21-.9-2.22-2.11-2.26h-.08a2.19 2.19 0 0 0-2.17 2.11"></path></defs><clipPath id="ai-centre_svg__SVGID_00000088125803102793342720000004954400092696468654_"><use xlink:href="#ai-centre_svg__SVGID_00000065788665734438277400000005910294556854485145_" style="overflow:visible"></use></clipPath><linearGradient id="ai-centre_svg__SVGID_00000176748990125977791310000011712927940021537967_" x1="-520.17" x2="-519.817" y1="469.04" y2="469.04" gradientTransform="scale(431.964 -431.964) rotate(29.646 626.45 1217.182)" gradientUnits="userSpaceOnUse"><stop offset="0" style="stop-color:#daeef5"></stop><stop offset="0.055" style="stop-color:#daeef5"></stop><stop offset="0.436" style="stop-color:#bda5cf"></stop><stop offset="0.544" style="stop-color:#c7a8ce"></stop><stop offset="0.729" style="stop-color:#e3b1cb"></stop><stop offset="0.835" style="stop-color:#f6b7c9"></stop><stop offset="1" style="stop-color:#f6b7c9"></stop></linearGradient><path d="m93.87 26.47 5.24-2.98 2.97 5.22-5.24 2.98z" style="clip-path:url(#ai-centre_svg__SVGID_00000088125803102793342720000004954400092696468654_);fill:url(#ai-centre_svg__SVGID_00000176748990125977791310000011712927940021537967_)"></path><defs><path id="ai-centre_svg__SVGID_00000143607813870725487750000000542333377189615547_" d="M90.69 31.96c-.03.85.63 1.56 1.48 1.59h.06c.82 0 1.51-.65 1.53-1.48.03-.85-.63-1.56-1.48-1.6h-.05c-.82 0-1.51.65-1.54 1.49"></path></defs><clipPath id="ai-centre_svg__SVGID_00000039107596966163842600000006119841573356013488_"><use xlink:href="#ai-centre_svg__SVGID_00000143607813870725487750000000542333377189615547_" style="overflow:visible"></use></clipPath><linearGradient id="ai-centre_svg__SVGID_00000149368610046710770900000016676607929150231229_" x1="-520.17" x2="-519.817" y1="469.044" y2="469.044" gradientTransform="scale(432.0253 -432.0253) rotate(29.646 626.463 1217.186)" gradientUnits="userSpaceOnUse"><stop offset="0" style="stop-color:#daeef5"></stop><stop offset="0.055" style="stop-color:#daeef5"></stop><stop offset="0.436" style="stop-color:#bda5cf"></stop><stop offset="0.544" style="stop-color:#c7a8ce"></stop><stop offset="0.729" style="stop-color:#e3b1cb"></stop><stop offset="0.835" style="stop-color:#f6b7c9"></stop><stop offset="1" style="stop-color:#f6b7c9"></stop></linearGradient><path d="m89.34 31.23 3.69-2.11 2.09 3.68-3.69 2.1z" style="clip-path:url(#ai-centre_svg__SVGID_00000039107596966163842600000006119841573356013488_);fill:url(#ai-centre_svg__SVGID_00000149368610046710770900000016676607929150231229_)"></path><defs><path id="ai-centre_svg__SVGID_00000034062785389614196440000016641722645218433183_" d="M27.33.9a2.192 2.192 0 0 0 1.49 3.79 2.192 2.192 0 0 0 1.6-3.68A2.18 2.18 0 0 0 27.33.9"></path></defs><clipPath id="ai-centre_svg__SVGID_00000027587559410413762710000003577044856771311264_"><use xlink:href="#ai-centre_svg__SVGID_00000034062785389614196440000016641722645218433183_" style="overflow:visible"></use></clipPath><linearGradient id="ai-centre_svg__SVGID_00000113340586566600898080000011998254746682949780_" x1="-520.17" x2="-519.817" y1="468.802" y2="468.802" gradientTransform="scale(431.9293 -431.9293) rotate(29.646 625.757 1217)" gradientUnits="userSpaceOnUse"><stop offset="0" style="stop-color:#daeef5"></stop><stop offset="0.055" style="stop-color:#daeef5"></stop><stop offset="0.436" style="stop-color:#bda5cf"></stop><stop offset="0.544" style="stop-color:#c7a8ce"></stop><stop offset="0.729" style="stop-color:#e3b1cb"></stop><stop offset="0.835" style="stop-color:#f6b7c9"></stop><stop offset="1" style="stop-color:#f6b7c9"></stop></linearGradient><path d="m24.51 1.38 5.54-3.15 3.07 5.38-5.54 3.16z" style="clip-path:url(#ai-centre_svg__SVGID_00000027587559410413762710000003577044856771311264_);fill:url(#ai-centre_svg__SVGID_00000113340586566600898080000011998254746682949780_)"></path><defs><path id="ai-centre_svg__SVGID_00000055702515195514434380000002203835175211883701_" d="M6.88 31.63c-.77 1.9.14 4.06 2.04 4.84 1.9.77 4.07-.14 4.84-2.04.78-1.9-.14-4.07-2.04-4.84-.46-.19-.93-.28-1.4-.28-1.46.01-2.85.88-3.44 2.32"></path></defs><clipPath id="ai-centre_svg__SVGID_00000140721070079662699720000009742405233987716010_"><use xlink:href="#ai-centre_svg__SVGID_00000055702515195514434380000002203835175211883701_" style="overflow:visible"></use></clipPath><linearGradient id="ai-centre_svg__SVGID_00000122690868491637977980000008988753141159239853_" x1="-520.138" x2="-519.784" y1="468.769" y2="468.769" gradientTransform="scale(402.5438 -402.5438) rotate(12.899 1813.792 2534.811)" gradientUnits="userSpaceOnUse"><stop offset="0" style="stop-color:#96d4e4"></stop><stop offset="0.055" style="stop-color:#96d4e4"></stop><stop offset="0.27" style="stop-color:#7b70ac"></stop><stop offset="0.436" style="stop-color:#672784"></stop><stop offset="0.493" style="stop-color:#702683"></stop><stop offset="0.586" style="stop-color:#89227f"></stop><stop offset="0.703" style="stop-color:#b11c79"></stop><stop offset="0.835" style="stop-color:#e61471"></stop><stop offset="1" style="stop-color:#e61471"></stop></linearGradient><path d="m4.38 29.71 9.73-2.22 2.15 9.36-9.73 2.23z" style="clip-path:url(#ai-centre_svg__SVGID_00000140721070079662699720000009742405233987716010_);fill:url(#ai-centre_svg__SVGID_00000122690868491637977980000008988753141159239853_)"></path><defs><path id="ai-centre_svg__SVGID_00000036225057039196300850000007242930949342149022_" d="M30.69 6.94c-1.89.8-2.78 2.97-1.98 4.86.8 1.89 2.97 2.78 4.86 1.98 1.89-.8 2.78-2.97 1.98-4.86a3.72 3.72 0 0 0-3.43-2.27c-.48 0-.96.1-1.43.29"></path></defs><clipPath id="ai-centre_svg__SVGID_00000152227931108505966590000007855001459485173127_"><use xlink:href="#ai-centre_svg__SVGID_00000036225057039196300850000007242930949342149022_" style="overflow:visible"></use></clipPath><linearGradient id="ai-centre_svg__SVGID_00000101092953619216953840000011612624609570734243_" x1="-520.138" x2="-519.784" y1="468.691" y2="468.691" gradientTransform="scale(402.5573 -402.5573) rotate(12.899 1813.257 2534.75)" gradientUnits="userSpaceOnUse"><stop offset="0" style="stop-color:#96d4e4"></stop><stop offset="0.055" style="stop-color:#96d4e4"></stop><stop offset="0.27" style="stop-color:#7b70ac"></stop><stop offset="0.436" style="stop-color:#672784"></stop><stop offset="0.493" style="stop-color:#702683"></stop><stop offset="0.586" style="stop-color:#89227f"></stop><stop offset="0.703" style="stop-color:#b11c79"></stop><stop offset="0.835" style="stop-color:#e61471"></stop><stop offset="1" style="stop-color:#e61471"></stop></linearGradient><path d="m26.18 7.05 9.74-2.23 2.15 9.37-9.74 2.23z" style="clip-path:url(#ai-centre_svg__SVGID_00000152227931108505966590000007855001459485173127_);fill:url(#ai-centre_svg__SVGID_00000101092953619216953840000011612624609570734243_)"></path><defs><path id="ai-centre_svg__SVGID_00000104707324032781022420000012469728025968256948_" d="M36.69 45.82c-1.6.67-2.59 2.16-2.73 3.78H7.64c-.18-1.02-1.04-1.81-2.11-1.81-1.21 0-2.18.98-2.18 2.18 0 1.21.98 2.19 2.18 2.19 1.07 0 1.92-.79 2.11-1.81h26.32c.04.46.13.92.32 1.37.97 2.3 3.61 3.38 5.91 2.41 2.3-.97 3.38-3.61 2.41-5.91a4.517 4.517 0 0 0-4.16-2.77c-.59.01-1.18.13-1.75.37"></path></defs><clipPath id="ai-centre_svg__SVGID_00000031922140480352082860000009423655960866152095_"><use xlink:href="#ai-centre_svg__SVGID_00000104707324032781022420000012469728025968256948_" style="overflow:visible"></use></clipPath><linearGradient id="ai-centre_svg__SVGID_00000066506084511655843850000002761612167072491410_" x1="-520.138" x2="-519.784" y1="468.863" y2="468.863" gradientTransform="scale(402.5167 -402.5167) rotate(12.899 1814.436 2534.897)" gradientUnits="userSpaceOnUse"><stop offset="0" style="stop-color:#96d4e4"></stop><stop offset="0.055" style="stop-color:#96d4e4"></stop><stop offset="0.27" style="stop-color:#7b70ac"></stop><stop offset="0.436" style="stop-color:#672784"></stop><stop offset="0.493" style="stop-color:#702683"></stop><stop offset="0.586" style="stop-color:#89227f"></stop><stop offset="0.703" style="stop-color:#b11c79"></stop><stop offset="0.835" style="stop-color:#e61471"></stop><stop offset="1" style="stop-color:#e61471"></stop></linearGradient><path d="m1.25 45.94 40.31-9.23 4.1 17.92-40.31 9.23z" style="clip-path:url(#ai-centre_svg__SVGID_00000031922140480352082860000009423655960866152095_);fill:url(#ai-centre_svg__SVGID_00000066506084511655843850000002761612167072491410_)"></path><defs><path id="ai-centre_svg__SVGID_00000178192455118108156460000015136804818154301860_" d="M46.09 7c0 .97.64 1.76 1.51 2.05v26.13c-.33.06-.67.14-.99.28-2.3.97-3.38 3.61-2.41 5.91.97 2.3 3.61 3.38 5.91 2.41a4.508 4.508 0 0 0-.99-8.6V9.01A2.19 2.19 0 0 0 50.47 7a2.19 2.19 0 1 0-4.38 0"></path></defs><clipPath id="ai-centre_svg__SVGID_00000057143791170874449890000016210407665557627304_"><use xlink:href="#ai-centre_svg__SVGID_00000178192455118108156460000015136804818154301860_" style="overflow:visible"></use></clipPath><linearGradient id="ai-centre_svg__SVGID_00000108270446205831448270000000942621588772937919_" x1="-520.138" x2="-519.784" y1="468.769" y2="468.769" gradientTransform="scale(402.5197 -402.5197) rotate(12.899 1813.807 2534.823)" gradientUnits="userSpaceOnUse"><stop offset="0" style="stop-color:#96d4e4"></stop><stop offset="0.055" style="stop-color:#96d4e4"></stop><stop offset="0.27" style="stop-color:#7b70ac"></stop><stop offset="0.436" style="stop-color:#672784"></stop><stop offset="0.493" style="stop-color:#702683"></stop><stop offset="0.586" style="stop-color:#89227f"></stop><stop offset="0.703" style="stop-color:#b11c79"></stop><stop offset="0.835" style="stop-color:#e61471"></stop><stop offset="1" style="stop-color:#e61471"></stop></linearGradient><path d="m34.55 6.8 18.43-4.22 9.2 40.17-18.43 4.22z" style="clip-path:url(#ai-centre_svg__SVGID_00000057143791170874449890000016210407665557627304_);fill:url(#ai-centre_svg__SVGID_00000108270446205831448270000000942621588772937919_)"></path><defs><path id="ai-centre_svg__SVGID_00000069370878520049023160000005182705866110295478_" d="M56.39 48.91c-.99.42-1.46 1.56-1.04 2.55l.04.06-4.53 4.68c-1.22-.8-2.8-1-4.24-.4-2.3.97-3.38 3.61-2.41 5.91a4.478 4.478 0 0 0 3.4 2.69v27.57c-.84.3-1.45 1.09-1.45 2.04 0 1.21.98 2.19 2.18 2.19 1.21 0 2.19-.98 2.19-2.19 0-.93-.59-1.71-1.4-2.03V64.4c.34-.06.67-.14.99-.28 2.3-.97 3.38-3.61 2.41-5.91a4.31 4.31 0 0 0-.63-1.03l4.52-4.66a1.947 1.947 0 0 0 2.53-2.56 1.95 1.95 0 0 0-1.8-1.2c-.26 0-.51.05-.76.15"></path></defs><clipPath id="ai-centre_svg__SVGID_00000011004963712084093380000009757634178100736418_"><use xlink:href="#ai-centre_svg__SVGID_00000069370878520049023160000005182705866110295478_" style="overflow:visible"></use></clipPath><linearGradient id="ai-centre_svg__SVGID_00000085231684923868633540000000455028827370579604_" x1="-520.138" x2="-519.784" y1="468.988" y2="468.988" gradientTransform="scale(402.5205 -402.5205) rotate(12.899 1815.28 2534.978)" gradientUnits="userSpaceOnUse"><stop offset="0" style="stop-color:#96d4e4"></stop><stop offset="0.055" style="stop-color:#96d4e4"></stop><stop offset="0.27" style="stop-color:#7b70ac"></stop><stop offset="0.436" style="stop-color:#672784"></stop><stop offset="0.493" style="stop-color:#702683"></stop><stop offset="0.586" style="stop-color:#89227f"></stop><stop offset="0.703" style="stop-color:#b11c79"></stop><stop offset="0.835" style="stop-color:#e61471"></stop><stop offset="1" style="stop-color:#e61471"></stop></linearGradient><path d="m32.92 51.12 25.64-5.87 11.12 48.58-25.64 5.87z" style="clip-path:url(#ai-centre_svg__SVGID_00000011004963712084093380000009757634178100736418_);fill:url(#ai-centre_svg__SVGID_00000085231684923868633540000000455028827370579604_)"></path><defs><path id="ai-centre_svg__SVGID_00000070119363637352716000000015621419723391593860_" d="M61.89 8.43c-.78 1.9.14 4.06 2.04 4.84 1.9.78 4.07-.14 4.84-2.04.77-1.9-.14-4.06-2.04-4.84-.46-.19-.93-.28-1.4-.28-1.47.01-2.85.88-3.44 2.32"></path></defs><clipPath id="ai-centre_svg__SVGID_00000152250237821738164780000012466361179686615463_"><use xlink:href="#ai-centre_svg__SVGID_00000070119363637352716000000015621419723391593860_" style="overflow:visible"></use></clipPath><linearGradient id="ai-centre_svg__SVGID_00000092414008755458027260000016747708093346263734_" x1="-520.138" x2="-519.784" y1="468.722" y2="468.722" gradientTransform="scale(402.5093 -402.5093) rotate(12.899 1813.477 2534.782)" gradientUnits="userSpaceOnUse"><stop offset="0" style="stop-color:#96d4e4"></stop><stop offset="0.055" style="stop-color:#96d4e4"></stop><stop offset="0.27" style="stop-color:#7b70ac"></stop><stop offset="0.436" style="stop-color:#672784"></stop><stop offset="0.493" style="stop-color:#702683"></stop><stop offset="0.586" style="stop-color:#89227f"></stop><stop offset="0.703" style="stop-color:#b11c79"></stop><stop offset="0.835" style="stop-color:#e61471"></stop><stop offset="1" style="stop-color:#e61471"></stop></linearGradient><path d="m59.39 6.51 9.73-2.23 2.14 9.37-9.73 2.23z" style="clip-path:url(#ai-centre_svg__SVGID_00000152250237821738164780000012466361179686615463_);fill:url(#ai-centre_svg__SVGID_00000092414008755458027260000016747708093346263734_)"></path><defs><path id="ai-centre_svg__SVGID_00000068669859571916061090000009070588889515637932_" d="M56.25 18.57c-.94 2.31.17 4.94 2.47 5.88.35.14.7.22 1.06.27v10.8c-.3.1-.58.26-.82.5a2.19 2.19 0 0 0 0 3.09c.86.85 2.24.85 3.09 0 .4-.4.6-.92.62-1.45h41.39c.2 1.27 1.03 2.4 2.32 2.9 1.91.74 4.06-.21 4.8-2.12a3.72 3.72 0 0 0-2.12-4.8c-1.91-.74-4.06.21-4.8 2.12-.15.39-.22.8-.23 1.19H75.07L87.7 24.32a3.711 3.711 0 0 0 5.15-.03c1.47-1.43 1.49-3.78.06-5.25a3.703 3.703 0 0 0-5.25-.06c-1.33 1.29-1.47 3.33-.42 4.8L74.06 36.96H62.57c-.07-.24-.19-.45-.33-.65l15.1-15.1c.85.58 2 .53 2.75-.23.85-.85.85-2.24 0-3.09-.85-.86-2.24-.86-3.09 0-.77.77-.81 1.97-.18 2.83L61.73 35.81c-.14-.1-.28-.21-.44-.27V24.7a4.487 4.487 0 0 0 3.31-2.72 4.529 4.529 0 0 0-4.17-6.23 4.535 4.535 0 0 0-4.18 2.82"></path></defs><clipPath id="ai-centre_svg__SVGID_00000008139330469040817860000012998200186665806260_"><use xlink:href="#ai-centre_svg__SVGID_00000068669859571916061090000009070588889515637932_" style="overflow:visible"></use></clipPath><linearGradient id="ai-centre_svg__SVGID_00000179642236722252877610000013450073511458448534_" x1="-520.138" x2="-519.784" y1="468.823" y2="468.823" gradientTransform="scale(402.5295 -402.5295) rotate(12.899 1814.17 2534.863)" gradientUnits="userSpaceOnUse"><stop offset="0" style="stop-color:#96d4e4"></stop><stop offset="0.055" style="stop-color:#96d4e4"></stop><stop offset="0.27" style="stop-color:#7b70ac"></stop><stop offset="0.436" style="stop-color:#672784"></stop><stop offset="0.493" style="stop-color:#702683"></stop><stop offset="0.586" style="stop-color:#89227f"></stop><stop offset="0.703" style="stop-color:#b11c79"></stop><stop offset="0.835" style="stop-color:#e61471"></stop><stop offset="1" style="stop-color:#e61471"></stop></linearGradient><path d="M49.75 17.03 109.1 3.44l8.38 36.59-59.35 13.59z" style="clip-path:url(#ai-centre_svg__SVGID_00000008139330469040817860000012998200186665806260_);fill:url(#ai-centre_svg__SVGID_00000179642236722252877610000013450073511458448534_)"></path><defs><path id="ai-centre_svg__SVGID_00000083058548999620021260000009926241741822874002_" d="M18.28 57.62c-2.3.97-3.38 3.61-2.41 5.91a4.508 4.508 0 0 0 8.6-.99h9.72c.02.06.05.11.08.17l-15.5 15.5c-.79-.33-1.74-.18-2.39.47a2.19 2.19 0 0 0 0 3.09c.85.85 2.24.85 3.09 0 .68-.68.79-1.69.39-2.51l15.49-15.49c.03.02.06.03.1.05v11.76c-1.59.2-3.03 1.23-3.64 2.83-.9 2.32.26 4.94 2.59 5.84 2.32.9 4.94-.26 5.84-2.58.9-2.33-.26-4.94-2.59-5.84a4.04 4.04 0 0 0-.68-.19V63.83c.3-.11.58-.26.82-.5.85-.85.85-2.24 0-3.09-.85-.86-2.24-.86-3.09 0-.23.23-.39.5-.49.79h-9.72a4.68 4.68 0 0 0-.28-1 4.507 4.507 0 0 0-4.16-2.76c-.61 0-1.2.11-1.77.35"></path></defs><clipPath id="ai-centre_svg__SVGID_00000119101514421291904620000013684616874930504075_"><use xlink:href="#ai-centre_svg__SVGID_00000083058548999620021260000009926241741822874002_" style="overflow:visible"></use></clipPath><linearGradient id="ai-centre_svg__SVGID_00000182506070103154910060000006750670197635267235_" x1="-520.138" x2="-519.784" y1="468.955" y2="468.955" gradientTransform="scale(402.5197 -402.5197) rotate(12.899 1815.073 2534.966)" gradientUnits="userSpaceOnUse"><stop offset="0" style="stop-color:#96d4e4"></stop><stop offset="0.055" style="stop-color:#96d4e4"></stop><stop offset="0.27" style="stop-color:#7b70ac"></stop><stop offset="0.436" style="stop-color:#672784"></stop><stop offset="0.493" style="stop-color:#702683"></stop><stop offset="0.586" style="stop-color:#89227f"></stop><stop offset="0.703" style="stop-color:#b11c79"></stop><stop offset="0.835" style="stop-color:#e61471"></stop><stop offset="1" style="stop-color:#e61471"></stop></linearGradient><path d="m8.83 58.66 30.98-7.1 7.37 32.19-30.97 7.1z" style="clip-path:url(#ai-centre_svg__SVGID_00000119101514421291904620000013684616874930504075_);fill:url(#ai-centre_svg__SVGID_00000182506070103154910060000006750670197635267235_)"></path><defs><path id="ai-centre_svg__SVGID_00000131329993560832690060000011232630961120144261_" d="M0 29.71c0 1.21.98 2.18 2.18 2.18 1.21 0 2.19-.98 2.19-2.18 0-1.21-.98-2.19-2.19-2.19A2.2 2.2 0 0 0 0 29.71"></path></defs><clipPath id="ai-centre_svg__SVGID_00000067203734522853213400000002507958380125021085_"><use xlink:href="#ai-centre_svg__SVGID_00000131329993560832690060000011232630961120144261_" style="overflow:visible"></use></clipPath><linearGradient id="ai-centre_svg__SVGID_00000152252423967495816900000006297653393891084162_" x1="-520.138" x2="-519.784" y1="468.747" y2="468.747" gradientTransform="scale(402.5108 -402.5108) rotate(12.899 1813.633 2534.792)" gradientUnits="userSpaceOnUse"><stop offset="0" style="stop-color:#96d4e4"></stop><stop offset="0.055" style="stop-color:#96d4e4"></stop><stop offset="0.27" style="stop-color:#7b70ac"></stop><stop offset="0.436" style="stop-color:#672784"></stop><stop offset="0.493" style="stop-color:#702683"></stop><stop offset="0.586" style="stop-color:#89227f"></stop><stop offset="0.703" style="stop-color:#b11c79"></stop><stop offset="0.835" style="stop-color:#e61471"></stop><stop offset="1" style="stop-color:#e61471"></stop></linearGradient><path d="m-.95 27.75 5.1-1.17 1.17 5.1-5.1 1.17z" style="clip-path:url(#ai-centre_svg__SVGID_00000067203734522853213400000002507958380125021085_);fill:url(#ai-centre_svg__SVGID_00000152252423967495816900000006297653393891084162_)"></path><defs><path id="ai-centre_svg__SVGID_00000025413702438851531330000008558749349053541545_" d="M34.57 16.6c-2.3.97-3.38 3.61-2.41 5.91.6 1.43 1.86 2.39 3.28 2.68v10.35c-.14.05-.25.15-.38.23L19.9 20.61c.41-.82.3-1.83-.39-2.51-.85-.86-2.24-.86-3.09 0a2.19 2.19 0 0 0 0 3.09c.81.81 2.09.83 2.95.09l15.07 15.07c-.1.15-.21.29-.27.45l-8.96-.04c-.19-1.58-1.18-3.02-2.76-3.66a4.51 4.51 0 0 0-5.88 2.48c-.94 2.31.17 4.94 2.47 5.88 2.32.95 4.96-.16 5.9-2.46.1-.24.16-.47.21-.71l9.03.04c.11.29.26.56.49.79.85.85 2.24.85 3.09 0 .85-.85.85-2.24 0-3.09-.24-.24-.52-.39-.82-.5V25.21c.38-.05.75-.14 1.12-.29 2.3-.97 3.38-3.61 2.41-5.91a4.507 4.507 0 0 0-5.9-2.41"></path></defs><clipPath id="ai-centre_svg__SVGID_00000016064075729845167770000005898555337546967695_"><use xlink:href="#ai-centre_svg__SVGID_00000025413702438851531330000008558749349053541545_" style="overflow:visible"></use></clipPath><linearGradient id="ai-centre_svg__SVGID_00000104683671681401112840000002048397079887120011_" x1="-520.138" x2="-519.784" y1="468.764" y2="468.764" gradientTransform="scale(402.5234 -402.5234) rotate(12.899 1813.787 2534.824)" gradientUnits="userSpaceOnUse"><stop offset="0" style="stop-color:#96d4e4"></stop><stop offset="0.055" style="stop-color:#96d4e4"></stop><stop offset="0.27" style="stop-color:#7b70ac"></stop><stop offset="0.436" style="stop-color:#672784"></stop><stop offset="0.493" style="stop-color:#702683"></stop><stop offset="0.586" style="stop-color:#89227f"></stop><stop offset="0.703" style="stop-color:#b11c79"></stop><stop offset="0.835" style="stop-color:#e61471"></stop><stop offset="1" style="stop-color:#e61471"></stop></linearGradient><path d="m9.88 17.55 30.28-6.93 6.98 30.49-30.28 6.93z" style="clip-path:url(#ai-centre_svg__SVGID_00000016064075729845167770000005898555337546967695_);fill:url(#ai-centre_svg__SVGID_00000104683671681401112840000002048397079887120011_)"></path><defs><path id="ai-centre_svg__SVGID_00000031908276030203123390000010634072953659477921_" d="M66.26 2.11c-.04 1.21.9 2.22 2.1 2.27 1.21.04 2.22-.9 2.26-2.1.04-1.21-.9-2.22-2.1-2.27h-.08c-1.17-.01-2.14.92-2.18 2.1"></path></defs><clipPath id="ai-centre_svg__SVGID_00000044176917020308297350000009575015215128770751_"><use xlink:href="#ai-centre_svg__SVGID_00000031908276030203123390000010634072953659477921_" style="overflow:visible"></use></clipPath><linearGradient id="ai-centre_svg__SVGID_00000147932640529878362860000012637033653008681645_" x1="-520.138" x2="-519.784" y1="468.692" y2="468.692" gradientTransform="scale(402.4553 -402.4553) rotate(12.899 1813.259 2534.75)" gradientUnits="userSpaceOnUse"><stop offset="0" style="stop-color:#96d4e4"></stop><stop offset="0.055" style="stop-color:#96d4e4"></stop><stop offset="0.27" style="stop-color:#7b70ac"></stop><stop offset="0.436" style="stop-color:#672784"></stop><stop offset="0.493" style="stop-color:#702683"></stop><stop offset="0.586" style="stop-color:#89227f"></stop><stop offset="0.703" style="stop-color:#b11c79"></stop><stop offset="0.835" style="stop-color:#e61471"></stop><stop offset="1" style="stop-color:#e61471"></stop></linearGradient><path d="m65.26.22 5.19-1.19 1.18 5.16-5.19 1.19z" style="clip-path:url(#ai-centre_svg__SVGID_00000044176917020308297350000009575015215128770751_);fill:url(#ai-centre_svg__SVGID_00000147932640529878362860000012637033653008681645_)"></path><defs><path id="ai-centre_svg__SVGID_00000080906705484293169230000014953376097432332675_" d="M94.19 14.93a2.18 2.18 0 0 0 1.03 2.91c1.09.52 2.39.06 2.91-1.03a2.18 2.18 0 0 0-1.97-3.12c-.81 0-1.59.45-1.97 1.24"></path></defs><clipPath id="ai-centre_svg__SVGID_00000072986037480179683160000018438636871746919340_"><use xlink:href="#ai-centre_svg__SVGID_00000080906705484293169230000014953376097432332675_" style="overflow:visible"></use></clipPath><linearGradient id="ai-centre_svg__SVGID_00000078734062238096928400000007682487635619864465_" x1="-520.138" x2="-519.784" y1="468.78" y2="468.78" gradientTransform="scale(402.585 -402.585) rotate(12.899 1813.877 2534.83)" gradientUnits="userSpaceOnUse"><stop offset="0" style="stop-color:#96d4e4"></stop><stop offset="0.055" style="stop-color:#96d4e4"></stop><stop offset="0.27" style="stop-color:#7b70ac"></stop><stop offset="0.436" style="stop-color:#672784"></stop><stop offset="0.493" style="stop-color:#702683"></stop><stop offset="0.586" style="stop-color:#89227f"></stop><stop offset="0.703" style="stop-color:#b11c79"></stop><stop offset="0.835" style="stop-color:#e61471"></stop><stop offset="1" style="stop-color:#e61471"></stop></linearGradient><path d="m92.65 13.92 5.76-1.32 1.27 5.53-5.76 1.32z" style="clip-path:url(#ai-centre_svg__SVGID_00000072986037480179683160000018438636871746919340_);fill:url(#ai-centre_svg__SVGID_00000078734062238096928400000007682487635619864465_)"></path><defs><path id="ai-centre_svg__SVGID_00000166677723424615750020000009922978165921968055_" d="M24.83 18.23a2.18 2.18 0 0 0 2.1 2.26 2.18 2.18 0 1 0 .15-4.36H27c-1.15-.01-2.12.92-2.17 2.1"></path></defs><clipPath id="ai-centre_svg__SVGID_00000012473322305414326240000015137252221452710554_"><use xlink:href="#ai-centre_svg__SVGID_00000166677723424615750020000009922978165921968055_" style="overflow:visible"></use></clipPath><linearGradient id="ai-centre_svg__SVGID_00000033341989314443236120000010109059289958181520_" x1="-520.138" x2="-519.784" y1="468.721" y2="468.721" gradientTransform="scale(402.5573 -402.5573) rotate(12.899 1813.462 2534.774)" gradientUnits="userSpaceOnUse"><stop offset="0" style="stop-color:#96d4e4"></stop><stop offset="0.055" style="stop-color:#96d4e4"></stop><stop offset="0.27" style="stop-color:#7b70ac"></stop><stop offset="0.436" style="stop-color:#672784"></stop><stop offset="0.493" style="stop-color:#702683"></stop><stop offset="0.586" style="stop-color:#89227f"></stop><stop offset="0.703" style="stop-color:#b11c79"></stop><stop offset="0.835" style="stop-color:#e61471"></stop><stop offset="1" style="stop-color:#e61471"></stop></linearGradient><path d="m23.83 16.34 5.2-1.19 1.18 5.17-5.2 1.19z" style="clip-path:url(#ai-centre_svg__SVGID_00000012473322305414326240000015137252221452710554_);fill:url(#ai-centre_svg__SVGID_00000033341989314443236120000010109059289958181520_)"></path><defs><path id="ai-centre_svg__SVGID_00000002366680172868621670000001238610089531254177_" d="M36.11 4.52c-.05 1.21.9 2.22 2.1 2.26 1.21.05 2.22-.9 2.26-2.1a2.19 2.19 0 0 0-2.11-2.27h-.08c-1.16 0-2.13.93-2.17 2.11"></path></defs><clipPath id="ai-centre_svg__SVGID_00000065069779528913449220000013878813097400462212_"><use xlink:href="#ai-centre_svg__SVGID_00000002366680172868621670000001238610089531254177_" style="overflow:visible"></use></clipPath><linearGradient id="ai-centre_svg__SVGID_00000072970024093243114090000002510720495611639947_" x1="-520.138" x2="-519.784" y1="468.672" y2="468.672" gradientTransform="scale(402.618 -402.618) rotate(12.899 1813.136 2534.748)" gradientUnits="userSpaceOnUse"><stop offset="0" style="stop-color:#96d4e4"></stop><stop offset="0.055" style="stop-color:#96d4e4"></stop><stop offset="0.27" style="stop-color:#7b70ac"></stop><stop offset="0.436" style="stop-color:#672784"></stop><stop offset="0.493" style="stop-color:#702683"></stop><stop offset="0.586" style="stop-color:#89227f"></stop><stop offset="0.703" style="stop-color:#b11c79"></stop><stop offset="0.835" style="stop-color:#e61471"></stop><stop offset="1" style="stop-color:#e61471"></stop></linearGradient><path d="m35.1 2.63 5.2-1.19 1.18 5.17-5.2 1.19z" style="clip-path:url(#ai-centre_svg__SVGID_00000065069779528913449220000013878813097400462212_);fill:url(#ai-centre_svg__SVGID_00000072970024093243114090000002510720495611639947_)"></path><defs><path id="ai-centre_svg__SVGID_00000150782981660011467080000016106689877297738651_" d="M54.47 11.29c-.04 1.02.76 1.88 1.78 1.92 1.02.04 1.88-.76 1.91-1.78.04-1.02-.76-1.88-1.78-1.92h-.06c-.99-.01-1.81.78-1.85 1.78"></path></defs><clipPath id="ai-centre_svg__SVGID_00000003799213698214486210000002964814542664848548_"><use xlink:href="#ai-centre_svg__SVGID_00000150782981660011467080000016106689877297738651_" style="overflow:visible"></use></clipPath><linearGradient id="ai-centre_svg__SVGID_00000157280544157932748630000013663817070023544998_" x1="-520.138" x2="-519.784" y1="468.72" y2="468.72" gradientTransform="scale(402.519 -402.519) rotate(12.899 1813.46 2534.78)" gradientUnits="userSpaceOnUse"><stop offset="0" style="stop-color:#96d4e4"></stop><stop offset="0.055" style="stop-color:#96d4e4"></stop><stop offset="0.27" style="stop-color:#7b70ac"></stop><stop offset="0.436" style="stop-color:#672784"></stop><stop offset="0.493" style="stop-color:#702683"></stop><stop offset="0.586" style="stop-color:#89227f"></stop><stop offset="0.703" style="stop-color:#b11c79"></stop><stop offset="0.835" style="stop-color:#e61471"></stop><stop offset="1" style="stop-color:#e61471"></stop></linearGradient><path d="m53.62 9.69 4.4-1.01 1 4.37-4.4 1.01z" style="clip-path:url(#ai-centre_svg__SVGID_00000003799213698214486210000002964814542664848548_);fill:url(#ai-centre_svg__SVGID_00000157280544157932748630000013663817070023544998_)"></path><defs><path id="ai-centre_svg__SVGID_00000082331374379180008090000005416085780997126568_" d="M6.9 25.5c-.04 1.02.76 1.88 1.78 1.92 1.02.04 1.88-.76 1.92-1.78.04-1.02-.76-1.88-1.78-1.92h-.07c-1 0-1.82.78-1.85 1.78"></path></defs><clipPath id="ai-centre_svg__SVGID_00000172419302492013749150000009811123556560185999_"><use xlink:href="#ai-centre_svg__SVGID_00000082331374379180008090000005416085780997126568_" style="overflow:visible"></use></clipPath><linearGradient id="ai-centre_svg__SVGID_00000013194173958755347680000003063065464044441512_" x1="-520.138" x2="-519.784" y1="468.735" y2="468.735" gradientTransform="scale(402.6203 -402.6203) rotate(12.899 1813.561 2534.792)" gradientUnits="userSpaceOnUse"><stop offset="0" style="stop-color:#96d4e4"></stop><stop offset="0.055" style="stop-color:#96d4e4"></stop><stop offset="0.27" style="stop-color:#7b70ac"></stop><stop offset="0.436" style="stop-color:#672784"></stop><stop offset="0.493" style="stop-color:#702683"></stop><stop offset="0.586" style="stop-color:#89227f"></stop><stop offset="0.703" style="stop-color:#b11c79"></stop><stop offset="0.835" style="stop-color:#e61471"></stop><stop offset="1" style="stop-color:#e61471"></stop></linearGradient><path d="m6.04 23.9 4.4-1 1 4.37-4.39 1.01z" style="clip-path:url(#ai-centre_svg__SVGID_00000172419302492013749150000009811123556560185999_);fill:url(#ai-centre_svg__SVGID_00000013194173958755347680000003063065464044441512_)"></path><defs><path id="ai-centre_svg__SVGID_00000173124008331818338650000015135259713766637994_" d="M73.23 10.96c-.03.85.63 1.56 1.48 1.59.85.03 1.56-.63 1.59-1.48.03-.85-.63-1.56-1.48-1.6h-.05c-.83 0-1.51.66-1.54 1.49"></path></defs><clipPath id="ai-centre_svg__SVGID_00000067943376346864872330000015564035155019460779_"><use xlink:href="#ai-centre_svg__SVGID_00000173124008331818338650000015135259713766637994_" style="overflow:visible"></use></clipPath><linearGradient id="ai-centre_svg__SVGID_00000086678656218066690960000014774423588640772279_" x1="-520.138" x2="-519.784" y1="468.737" y2="468.737" gradientTransform="scale(402.4357 -402.4357) rotate(12.899 1813.57 2534.786)" gradientUnits="userSpaceOnUse"><stop offset="0" style="stop-color:#96d4e4"></stop><stop offset="0.055" style="stop-color:#96d4e4"></stop><stop offset="0.27" style="stop-color:#7b70ac"></stop><stop offset="0.436" style="stop-color:#672784"></stop><stop offset="0.493" style="stop-color:#702683"></stop><stop offset="0.586" style="stop-color:#89227f"></stop><stop offset="0.703" style="stop-color:#b11c79"></stop><stop offset="0.835" style="stop-color:#e61471"></stop><stop offset="1" style="stop-color:#e61471"></stop></linearGradient><path d="m72.52 9.63 3.66-.84.83 3.64-3.66.83z" style="clip-path:url(#ai-centre_svg__SVGID_00000067943376346864872330000015564035155019460779_);fill:url(#ai-centre_svg__SVGID_00000086678656218066690960000014774423588640772279_)"></path><defs><path id="ai-centre_svg__SVGID_00000041998778810687945920000016565227753578035615_" d="M10.45 55.17c-.03.85.63 1.56 1.48 1.59.85.03 1.56-.63 1.59-1.48.03-.85-.63-1.56-1.48-1.59h-.06c-.82-.01-1.5.65-1.53 1.48"></path></defs><clipPath id="ai-centre_svg__SVGID_00000178167860858137943970000010733744255969799823_"><use xlink:href="#ai-centre_svg__SVGID_00000041998778810687945920000016565227753578035615_" style="overflow:visible"></use></clipPath><linearGradient id="ai-centre_svg__SVGID_00000124122479418993957520000003450615137878355091_" x1="-520.138" x2="-519.784" y1="468.869" y2="468.869" gradientTransform="scale(402.4553 -402.4553) rotate(12.899 1814.475 2534.887)" gradientUnits="userSpaceOnUse"><stop offset="0" style="stop-color:#96d4e4"></stop><stop offset="0.055" style="stop-color:#96d4e4"></stop><stop offset="0.27" style="stop-color:#7b70ac"></stop><stop offset="0.436" style="stop-color:#672784"></stop><stop offset="0.493" style="stop-color:#702683"></stop><stop offset="0.586" style="stop-color:#89227f"></stop><stop offset="0.703" style="stop-color:#b11c79"></stop><stop offset="0.835" style="stop-color:#e61471"></stop><stop offset="1" style="stop-color:#e61471"></stop></linearGradient><path d="M9.74 53.84 13.4 53l.83 3.64-3.66.83z" style="clip-path:url(#ai-centre_svg__SVGID_00000178167860858137943970000010733744255969799823_);fill:url(#ai-centre_svg__SVGID_00000124122479418993957520000003450615137878355091_)"></path></svg>